# xmcd
#
# Track frame offsets:
#	150
#	14407
#	28167
#	40307
#	54500
#	69412
#	80845
#	94707
#	108190
#	119855
#	135270
#	147880
#
# Disc length: 2142 seconds
#
# Revision: 0
# Processed by: cddbd v1.5.2PL0 Copyright (c) Steve Scherf et al.
# Submitted via: EasyCDDAExtractor 16.0.8.1
#
DISCID=a5085c0c
DTITLE=Peão Carreiro e Paraíso - Peão Carreiro e Paraíso - 1983 - Mulher Mal A
DTITLE=mada
DYEAR=1983
DGENRE=Sertanejo
TTITLE0=Mulher Mal Amada
TTITLE1=Quarto De Porão
TTITLE2=Amantes E Nada Mais
TTITLE3=Mágoa Da Vida
TTITLE4=Eu Gostaria
TTITLE5=Reconciliação
TTITLE6=Flores Do Mundo
TTITLE7=O Filho Da Roça
TTITLE8=Coração Arrependido
TTITLE9=Minhas Queixas
TTITLE10=Decisão
TTITLE11=Ciúme
EXTD=
EXTT0=
EXTT1=
EXTT2=
EXTT3=
EXTT4=
EXTT5=
EXTT6=
EXTT7=
EXTT8=
EXTT9=
EXTT10=
EXTT11=
PLAYORDER=
